<svg width="8" height="14" viewBox="0 0 8 14" fill="none" xmlns="http://www.w3.org/2000/svg">
<path d="M7.28625 0.35229L5.6075 0.349609C3.72148 0.349609 2.50266 1.5939 2.50266 3.51977V4.98142H0.814748C0.668893 4.98142 0.550781 5.09908 0.550781 5.24422V7.36199C0.550781 7.50712 0.669028 7.62465 0.814748 7.62465H2.50266V12.9685C2.50266 13.1136 2.62077 13.2311 2.76662 13.2311H4.96886C5.11472 13.2311 5.23283 13.1135 5.23283 12.9685V7.62465H7.20639C7.35224 7.62465 7.47035 7.50712 7.47035 7.36199L7.47116 5.24422C7.47116 5.17453 7.44328 5.10779 7.39386 5.05848C7.34443 5.00916 7.27709 4.98142 7.20706 4.98142H5.23283V3.74236C5.23283 3.14682 5.37545 2.84449 6.1551 2.84449L7.28598 2.84409C7.4317 2.84409 7.54981 2.72642 7.54981 2.58142V0.614951C7.54981 0.470085 7.43183 0.352558 7.28625 0.35229Z" fill="#000B33"/>
</svg>
