<svg width="13" height="13" viewBox="0 0 13 13" fill="none" xmlns="http://www.w3.org/2000/svg">
<path d="M8.3934 0.503906H3.81518C1.70844 0.503906 0 2.20389 0 4.3002V8.85576C0 10.9521 1.70844 12.6521 3.81518 12.6521H8.3934C10.5001 12.6521 12.2086 10.9521 12.2086 8.85576V4.3002C12.2086 2.20389 10.5001 0.503906 8.3934 0.503906ZM11.064 8.85576C11.064 10.3211 9.86606 11.5132 8.3934 11.5132H3.81518C2.34252 11.5132 1.14455 10.3211 1.14455 8.85576V4.3002C1.14455 2.83483 2.34252 1.6428 3.81518 1.6428H8.3934C9.86606 1.6428 11.064 2.83483 11.064 4.3002V8.85576Z" fill="#000B33"/>
<path d="M6.11074 3.54785C4.42519 3.54785 3.05859 4.90769 3.05859 6.58489C3.05859 8.26209 4.42519 9.62193 6.11074 9.62193C7.79629 9.62193 9.16289 8.26209 9.16289 6.58489C9.16289 4.90769 7.79629 3.54785 6.11074 3.54785ZM6.11074 8.48304C5.05928 8.48304 4.20315 7.63115 4.20315 6.58489C4.20315 5.53787 5.05928 4.68674 6.11074 4.68674C7.1622 4.68674 8.01833 5.53787 8.01833 6.58489C8.01833 7.63115 7.1622 8.48304 6.11074 8.48304Z" fill="#000B33"/>
<path d="M9.37697 3.72744C9.60216 3.72744 9.7847 3.5458 9.7847 3.32173C9.7847 3.09766 9.60216 2.91602 9.37697 2.91602C9.15179 2.91602 8.96924 3.09766 8.96924 3.32173C8.96924 3.5458 9.15179 3.72744 9.37697 3.72744Z" fill="#000B33"/>
</svg>
