<svg width="13" height="12" viewBox="0 0 13 12" fill="none" xmlns="http://www.w3.org/2000/svg">
<path d="M12.0379 11.7623V11.7618H12.0407V7.62851C12.0407 5.60646 11.6033 4.04883 9.22759 4.04883C8.08553 4.04883 7.31912 4.67244 7.00624 5.26366H6.9732V4.2376H4.7207V11.7618H7.06617V8.03612C7.06617 7.05514 7.25305 6.10657 8.47392 6.10657C9.67686 6.10657 9.69479 7.22607 9.69479 8.09904V11.7623H12.0379Z" fill="#000B33"/>
<path d="M0.901367 4.25146H3.24967V11.7757H0.901367V4.25146Z" fill="#000B33"/>
<path d="M2.08177 0.504883C1.33093 0.504883 0.72168 1.11112 0.72168 1.85824C0.72168 2.60536 1.33093 3.22428 2.08177 3.22428C2.8326 3.22428 3.44185 2.60536 3.44185 1.85824C3.44138 1.11112 2.83213 0.504883 2.08177 0.504883V0.504883Z" fill="#000B33"/>
</svg>
